<svg xmlns="http://www.w3.org/2000/svg" viewBox="0 0 72 72">
  <g id="color">
    <circle cx="12" cy="24" r="5" fill="#9b9b9a"/>
    <circle cx="12" cy="48" r="5" fill="#9b9b9a"/>
    <circle cx="60" cy="24" r="5" fill="#9b9b9a"/>
    <circle cx="60" cy="48" r="5" fill="#9b9b9a"/>
    <path fill="#d0cfce" d="M6 22h60v4H6zm0 24h60v4H6z"/>
    <path fill="#ea5a47" d="M36 31h0v12h0z"/>
    <path fill="#92d3f5" d="M33 35s-6 4-5 8c0 0 0 1 0 2s0 2-1 3c0 0-1 0-1 2s2 3 4 2c0 0 1 0 2-1 0 0 0 3 1 4h4c1 0 1-4 1-4l1 1c1 1 2 1 2 1 2 1 4-1 4-2s-1-2-1-2c-1-1-1-2-1-3s0-2 0-2c1-4-5-8-5-8l-2 3z"/>
    <path fill="#d0cfce" d="M32 47s-2 0-2 2 3 1 4 0l-1-2zm8 0l-1 2s3 1 4 0-2-2-2-2z"/>
  </g>
  <g id="line">
    <circle cx="12" cy="24" r="5" fill="none" stroke="#000" stroke-miterlimit="10" stroke-width="2"/>
    <circle cx="12" cy="48" r="5" fill="none" stroke="#000" stroke-miterlimit="10" stroke-width="2"/>
    <circle cx="60" cy="24" r="5" fill="none" stroke="#000" stroke-miterlimit="10" stroke-width="2"/>
    <circle cx="60" cy="48" r="5" fill="none" stroke="#000" stroke-miterlimit="10" stroke-width="2"/>
    <path fill="none" stroke="#000" stroke-miterlimit="10" stroke-width="2" d="M6 22h60v4H6zm0 24h60v4H6z"/>
    <path fill="none" stroke="#000" stroke-linecap="round" stroke-linejoin="round" stroke-miterlimit="10" stroke-width="2" d="M36 31v12"/>
    <path fill="none" stroke="#000" stroke-linecap="round" stroke-linejoin="round" stroke-miterlimit="10" stroke-width="2" d="M33 35s-6 4-5 8c0 0 0 1 0 2s0 2-1 3c0 0-1 0-1 2s2 3 4 2c0 0 1 0 2-1 0 0 0 3 1 4h4c1 0 1-4 1-4l1 1c1 1 2 1 2 1 2 1 4-1 4-2s-1-2-1-2c-1-1-1-2-1-3s0-2 0-2c1-4-5-8-5-8l-2 3"/>
    <path fill="none" stroke="#000" stroke-linecap="round" stroke-linejoin="round" stroke-miterlimit="10" stroke-width="2" d="M32 47s-2 0-2 2 3 1 4 0l-1-2zm8 0l-1 2s3 1 4 0-2-2-2-2z"/>
  </g>
</svg>
